<svg width="18" height="20" viewBox="0 0 18 20" fill="none" xmlns="http://www.w3.org/2000/svg">
<rect width="18" height="20" fill="#E5E5E5"/>
<g clip-path="url(#clip0_1_1471)">
<rect width="1440" height="900" transform="translate(-1117 -682)" fill="white"/>
<g filter="url(#filter0_f_1_1471)">
<rect x="-1117" y="-682" width="1440" height="870" fill="#1C1A19"/>
<g clip-path="url(#clip1_1_1471)">
<path d="M170.898 39.6768L203.986 30.5054L194.819 -2.56655L161.731 6.60491L152.564 -26.467L185.652 -35.6385L176.485 -68.7104L143.397 -59.5389L110.309 -50.3674L101.142 -83.4394L134.23 -92.6108L125.063 -125.683L91.975 -116.511L101.142 -83.4394L68.0539 -74.2679L34.9658 -65.0964L25.7989 -98.1684L-7.28924 -88.9969L-40.3773 -79.8254L-31.2103 -46.7535L-22.0433 -13.6816L-55.1314 -4.51012L-64.2984 -37.582L-79.0607 -33.4902L-94.5034 -256.31C-94.5034 -256.31 -72.5822 -288.959 -13.6838 -291.04C74.5365 -294.125 117.836 -246.681 190.845 -230.483C236.729 -220.19 246.908 -240.818 246.908 -240.818L276.679 -49.3639C276.679 -49.3639 353.471 -65.9924 397.319 -14.5911C423.34 16.0008 384.228 47.9358 343.759 59.1532C301.508 70.8644 251.536 63.6219 171.533 41.9664L170.898 39.6768Z" fill="white" stroke="#F55800" stroke-width="1.22338" stroke-miterlimit="10"/>
<path d="M16.4051 -3.51894C3.5257 -3.51028 -7.77144 -1.74864 -18.0229 0.81896L-22.0423 -13.6818L11.0459 -22.8533L16.4051 -3.51894Z" fill="white" stroke="#F55800" stroke-width="1.22338" stroke-miterlimit="10"/>
<path d="M0.866647 15.5807L86.3867 -8.12402L101.406 46.063L15.8864 69.7677L0.866647 15.5807Z" fill="white" stroke="#F55800" stroke-width="1.22338" stroke-miterlimit="10"/>
</g>
</g>
<g style="mix-blend-mode:multiply">
<rect x="-1117" y="-682" width="1440" height="1519" fill="#979493"/>
</g>
<g filter="url(#filter1_d_1_1471)">
<rect x="-975" y="-570" width="1156" height="631" fill="white"/>
<rect x="-975.5" y="-570.5" width="1157" height="632" stroke="#EBECF0"/>
</g>
<rect width="159" height="48" transform="translate(-126 -14)" fill="#F55800"/>
<g clip-path="url(#clip2_1_1471)">
<path d="M17.9989 7.46114C17.9989 6.32124 17.6329 5.25043 16.9342 4.31779C17.2004 3.41969 17.2669 2.27979 17.2004 0.967185C17.1671 0.414508 16.7345 0 16.2022 0C15.9028 0 13.3741 0.0345423 11.9101 1.38169C10.6458 1.1399 9.31495 1.1399 8.01736 1.38169C6.58667 0.0345423 4.05802 0 3.7253 0C3.19296 0 2.76042 0.414508 2.72715 0.967185C2.62734 2.27979 2.72715 3.41969 2.99333 4.31779C2.29462 5.28497 1.92863 6.35579 1.92863 7.46114C1.92863 9.8791 3.7253 12.0553 6.45358 13.0915C6.35377 13.2988 6.28723 13.5406 6.22068 13.7824C3.32604 13.4715 1.9619 10.7427 1.89536 10.639C1.66246 10.1209 1.06357 9.91364 0.56449 10.19C0.0654144 10.4318 -0.134216 11.0535 0.131958 11.5717C0.198501 11.7444 2.02845 15.4404 6.05432 15.8549V18.9637C6.05432 19.5509 6.48686 20 7.05248 20H12.875C13.4406 20 13.8732 19.5509 13.8732 18.9637V14.8532C13.8732 14.2314 13.7401 13.6442 13.5072 13.1261C16.2022 12.0553 17.9989 9.91364 17.9989 7.46114Z" fill="white"/>
</g>
</g>
<defs>
<filter id="filter0_f_1_1471" x="-1125" y="-825" width="1966.16" height="4712" filterUnits="userSpaceOnUse" color-interpolation-filters="sRGB">
<feFlood flood-opacity="0" result="BackgroundImageFix"/>
<feBlend mode="normal" in="SourceGraphic" in2="BackgroundImageFix" result="shape"/>
<feGaussianBlur stdDeviation="4" result="effect1_foregroundBlur_1_1471"/>
</filter>
<filter id="filter1_d_1_1471" x="-1024" y="-571" width="1254" height="729" filterUnits="userSpaceOnUse" color-interpolation-filters="sRGB">
<feFlood flood-opacity="0" result="BackgroundImageFix"/>
<feColorMatrix in="SourceAlpha" type="matrix" values="0 0 0 0 0 0 0 0 0 0 0 0 0 0 0 0 0 0 127 0" result="hardAlpha"/>
<feOffset dy="48"/>
<feGaussianBlur stdDeviation="24"/>
<feColorMatrix type="matrix" values="0 0 0 0 0.145573 0 0 0 0 0.185183 0 0 0 0 0.5375 0 0 0 0.08 0"/>
<feBlend mode="normal" in2="BackgroundImageFix" result="effect1_dropShadow_1_1471"/>
<feBlend mode="normal" in="SourceGraphic" in2="effect1_dropShadow_1_1471" result="shape"/>
</filter>
<clipPath id="clip0_1_1471">
<rect width="1440" height="900" fill="white" transform="translate(-1117 -682)"/>
</clipPath>
<clipPath id="clip1_1_1471">
<rect width="1003.13" height="769.271" fill="white" transform="matrix(-0.963665 0.267112 0.267112 0.963665 627.682 -817)"/>
</clipPath>
<clipPath id="clip2_1_1471">
<rect width="18" height="20" fill="white"/>
</clipPath>
</defs>
</svg>
