<svg width="18" height="18" viewBox="0 0 18 18" fill="none" xmlns="http://www.w3.org/2000/svg">
<rect width="18" height="18" fill="#E5E5E5"/>
<g clip-path="url(#clip0_1_1471)">
<rect width="1440" height="900" transform="translate(-951 -683)" fill="white"/>
<g filter="url(#filter0_f_1_1471)">
<rect x="-951" y="-683" width="1440" height="870" fill="#1C1A19"/>
<g clip-path="url(#clip1_1_1471)">
</g>
</g>
<g style="mix-blend-mode:multiply">
<rect x="-951" y="-683" width="1440" height="1519" fill="#979493"/>
</g>
<g filter="url(#filter1_d_1_1471)">
<rect x="-809" y="-571" width="1156" height="631" fill="white"/>
<rect x="-809.5" y="-571.5" width="1157" height="632" stroke="#EBECF0"/>
</g>
<rect width="134" height="48" transform="translate(-101 -15)" fill="#F55800"/>
<path fill-rule="evenodd" clip-rule="evenodd" d="M2 9C2 5.13401 5.13401 2 9 2C9.55229 2 10 1.55228 10 1C10 0.447715 9.55229 0 9 0C4.02944 0 0 4.02944 0 9C0 13.9706 4.02944 18 9 18C13.9706 18 18 13.9706 18 9C18 8.44772 17.5523 8 17 8C16.4477 8 16 8.44772 16 9C16 12.866 12.866 16 9 16C5.13401 16 2 12.866 2 9ZM13 0C12.4477 0 12 0.447715 12 1C12 1.55228 12.4477 2 13 2H14.5858L8.29289 8.29289C7.90237 8.68342 7.90237 9.31658 8.29289 9.70711C8.68342 10.0976 9.31658 10.0976 9.70711 9.70711L16 3.41421V5C16 5.55228 16.4477 6 17 6C17.5523 6 18 5.55228 18 5V1C18 0.447715 17.5523 0 17 0H13Z" fill="white"/>
</g>
<defs>
<filter id="filter0_f_1_1471" x="-959" y="-826" width="1966.16" height="4712" filterUnits="userSpaceOnUse" color-interpolation-filters="sRGB">
<feFlood flood-opacity="0" result="BackgroundImageFix"/>
<feBlend mode="normal" in="SourceGraphic" in2="BackgroundImageFix" result="shape"/>
<feGaussianBlur stdDeviation="4" result="effect1_foregroundBlur_1_1471"/>
</filter>
<filter id="filter1_d_1_1471" x="-858" y="-572" width="1254" height="729" filterUnits="userSpaceOnUse" color-interpolation-filters="sRGB">
<feFlood flood-opacity="0" result="BackgroundImageFix"/>
<feColorMatrix in="SourceAlpha" type="matrix" values="0 0 0 0 0 0 0 0 0 0 0 0 0 0 0 0 0 0 127 0" result="hardAlpha"/>
<feOffset dy="48"/>
<feGaussianBlur stdDeviation="24"/>
<feColorMatrix type="matrix" values="0 0 0 0 0.145573 0 0 0 0 0.185183 0 0 0 0 0.5375 0 0 0 0.08 0"/>
<feBlend mode="normal" in2="BackgroundImageFix" result="effect1_dropShadow_1_1471"/>
<feBlend mode="normal" in="SourceGraphic" in2="effect1_dropShadow_1_1471" result="shape"/>
</filter>
<clipPath id="clip0_1_1471">
<rect width="1440" height="900" fill="white" transform="translate(-951 -683)"/>
</clipPath>
<clipPath id="clip1_1_1471">
<rect width="1003.13" height="769.271" fill="white" transform="matrix(-0.963665 0.267112 0.267112 0.963665 793.682 -818)"/>
</clipPath>
</defs>
</svg>
